<?xml version="1.0" standalone="no"?>
<!DOCTYPE svg PUBLIC "-//W3C//DTD SVG 20010904//EN"
 "http://www.w3.org/TR/2001/REC-SVG-20010904/DTD/svg10.dtd">
<svg version="1.0" xmlns="http://www.w3.org/2000/svg"
 width="1080.000000pt" height="1080.000000pt" viewBox="0 0 1080.000000 1080.000000"
 preserveAspectRatio="xMidYMid meet">

<g transform="translate(0.000000,1080.000000) scale(0.100000,-0.100000)"
fill="#000000" stroke="none">
<path d="M0 10523 c0 -267 1 -276 18 -260 40 37 82 5 82 -61 0 -26 5 -42 12
-42 25 0 166 158 248 277 55 80 90 121 99 118 9 -4 11 0 7 11 -9 23 89 122
149 150 76 36 196 29 254 -15 25 -19 25 -19 7 -64 -28 -74 -125 -210 -229
-322 -54 -58 -94 -105 -89 -105 19 0 128 87 163 131 55 67 109 155 143 234 17
39 36 72 41 74 6 1 15 -19 22 -45 44 -170 -143 -450 -379 -569 -88 -44 -222
-81 -258 -72 -11 3 -20 2 -20 -3 0 -4 -28 -10 -62 -14 -95 -9 -139 -25 -175
-61 l-33 -33 0 -229 0 -228 41 -70 c22 -38 56 -89 76 -113 l35 -43 -33 20
c-20 13 -51 21 -76 21 l-43 0 0 -587 c0 -500 2 -585 14 -568 7 11 52 92 99
180 47 88 108 203 137 255 46 86 50 99 45 139 -10 68 -44 169 -82 245 -21 41
-32 75 -28 85 17 39 22 83 15 123 l-8 43 54 -59 c30 -33 74 -93 98 -134 l45
-74 11 43 c6 24 14 53 17 64 13 46 50 90 126 145 76 56 83 64 137 167 55 104
59 108 88 105 46 -5 123 33 151 74 35 51 40 130 12 185 l-22 41 87 162 c48 88
105 193 127 231 104 182 227 422 227 445 0 42 -29 151 -56 218 l-26 62 -634 0
-634 0 0 -277z"/>
<path d="M1373 10782 c10 -10 14 -22 10 -25 -3 -4 0 -7 9 -7 8 0 25 -11 38
-25 13 -14 26 -25 30 -25 5 0 50 84 50 95 0 3 -34 5 -77 5 -73 0 -75 -1 -60
-18z"/>
<path d="M1595 10563 c-71 -131 -149 -274 -175 -318 -26 -44 -80 -140 -120
-213 -40 -73 -79 -140 -87 -148 -8 -8 -11 -14 -8 -14 6 0 -41 -91 -88 -169
l-21 -34 45 27 c131 80 234 121 439 175 144 38 145 38 170 19 31 -23 87 -33
135 -24 44 9 110 66 125 109 6 18 27 44 49 58 61 43 74 82 82 254 4 83 10 173
14 200 9 66 53 240 70 282 l14 33 -258 0 -258 0 -128 -237z"/>
<path d="M2494 10738 c-16 -34 -57 -111 -90 -170 -34 -59 -58 -108 -54 -108
15 0 89 94 120 152 47 87 82 188 67 188 -7 0 -27 -28 -43 -62z"/>
<path d="M2616 10754 c-10 -25 -54 -101 -97 -170 -43 -68 -74 -124 -70 -124 5
0 32 25 60 56 49 53 103 150 135 242 21 59 -3 56 -28 -4z"/>
<path d="M2717 10723 c-5 -84 -38 -203 -63 -228 -8 -8 -13 -15 -9 -15 19 0
-117 -204 -193 -289 -47 -53 -49 -54 -82 -43 -123 44 -243 -31 -243 -151 0
-106 70 -177 173 -177 21 0 51 5 66 10 23 9 33 6 80 -31 237 -182 357 -436
311 -655 -58 -273 -296 -425 -454 -289 -91 78 -133 210 -133 423 0 90 -6 171
-16 218 -54 264 -110 317 -306 293 -174 -21 -473 -145 -748 -309 -138 -82
-187 -124 -209 -179 -9 -19 -21 -31 -33 -31 -31 0 -95 -38 -118 -70 -41 -58
-39 -139 6 -206 21 -30 24 -44 19 -73 -12 -62 -40 -103 -173 -247 -115 -124
-140 -159 -215 -290 -84 -149 -137 -248 -137 -259 0 -12 154 100 223 161 96
88 176 144 272 192 195 97 362 114 489 50 85 -43 176 -166 176 -237 0 -78 -66
-148 -165 -177 -65 -18 -476 -47 -489 -33 -14 13 -42 11 -58 -4 -7 -8 -43 -17
-78 -21 -160 -18 -348 -71 -447 -128 -49 -27 -56 -36 -105 -136 l-53 -107 -3
-845 c-3 -836 -3 -846 19 -961 l22 -116 -19 -134 c-14 -99 -19 -192 -19 -358
l0 -224 28 -20 c21 -16 41 -21 85 -20 49 1 75 10 190 69 72 37 179 95 237 129
58 35 105 59 105 54 0 -5 4 -9 10 -9 5 0 7 6 5 13 -6 14 207 218 314 300 83
65 196 122 273 138 72 16 148 6 222 -29 75 -35 126 -84 163 -155 23 -44 28
-64 28 -132 0 -70 -4 -87 -30 -134 -68 -123 -227 -207 -468 -246 -112 -18
-410 -20 -554 -3 -177 20 -370 -12 -548 -92 l-65 -29 0 -131 c0 -71 4 -130 9
-130 5 0 51 11 103 24 147 39 244 49 412 43 120 -4 169 -10 241 -31 131 -37
243 -97 306 -163 l52 -55 -29 -23 c-16 -13 -26 -26 -23 -29 3 -4 17 3 31 14
l26 20 11 -45 c28 -113 -2 -226 -73 -272 -83 -54 -231 -67 -356 -32 -99 27
-154 58 -258 146 -143 121 -427 333 -446 333 -3 0 -6 -628 -6 -1395 l0 -1396
33 5 c17 3 104 15 192 26 88 12 225 30 305 41 216 29 218 29 195 18 -11 -4
-171 -40 -355 -79 -184 -39 -343 -73 -352 -76 -17 -5 -18 -54 -18 -850 l0
-844 4888 0 c4875 1 4887 1 4837 21 -99 39 -240 86 -260 87 -27 1 -337 119
-344 131 -4 5 -105 46 -226 91 -121 45 -223 85 -228 89 -4 4 -49 299 -99 657
-51 357 -93 651 -94 652 -1 2 -21 6 -43 9 -31 4 -42 11 -46 27 -18 79 -65 450
-58 456 4 4 154 38 333 74 556 113 561 115 510 131 -11 3 -51 37 -90 74 -82
80 -126 161 -115 214 9 40 36 93 67 130 23 27 24 27 255 47 l233 20 42 -26
c59 -37 128 -112 189 -205 29 -44 56 -76 60 -72 4 4 28 60 53 123 25 63 61
140 79 170 l33 55 65 6 c35 4 105 10 154 14 l90 7 -21 -23 c-45 -50 -76 -111
-138 -265 l-64 -159 26 -3 c59 -8 217 211 237 327 5 31 2 51 -12 80 l-20 39
31 6 c17 3 74 8 127 12 l96 7 24 -34 c19 -28 24 -46 24 -99 0 -78 -35 -155
-121 -268 l-54 -72 167 0 c93 0 178 -3 191 -6 l22 -6 0 1012 0 1012 -32 -21
c-89 -55 -219 -153 -349 -261 -79 -66 -171 -133 -205 -149 -199 -99 -458 -71
-519 56 -23 47 -31 154 -16 211 l12 43 26 -21 c14 -11 29 -18 32 -14 3 3 -6
16 -21 28 l-28 22 24 34 c47 70 177 142 334 187 167 47 437 43 650 -11 l93
-24 -3 136 -3 136 -97 38 c-185 73 -247 78 -695 63 -247 -8 -328 -2 -478 37
-164 42 -294 128 -346 228 -31 60 -34 196 -5 250 58 109 173 186 293 197 102
9 238 -42 368 -140 98 -73 321 -286 317 -303 -2 -8 2 -14 8 -14 5 0 10 5 10
11 0 6 12 2 28 -9 52 -37 353 -203 405 -223 60 -24 141 -28 176 -10 l23 13 -7
326 c-3 180 -6 356 -5 392 0 36 3 497 6 1025 l5 960 -43 88 -43 89 -82 39
c-91 44 -226 81 -382 103 -58 9 -109 20 -115 26 -12 12 -48 13 -62 2 -13 -13
-366 5 -454 23 -158 31 -232 139 -175 258 27 57 96 129 157 162 51 29 58 30
178 30 119 -1 129 -2 217 -36 106 -41 236 -117 296 -171 22 -21 42 -38 45 -38
2 0 26 -20 53 -44 47 -42 181 -136 195 -136 7 0 -39 86 -149 275 -72 125 -96
155 -214 278 -142 147 -159 171 -172 242 -6 34 -5 47 6 57 32 26 45 70 41 136
-4 61 -7 67 -45 103 -28 26 -55 41 -82 45 -32 5 -42 12 -52 38 -23 53 -60 86
-184 159 -106 62 -365 197 -380 197 -3 0 -24 9 -48 19 -124 56 -307 101 -412
101 -114 0 -176 -49 -209 -163 -32 -113 -46 -222 -46 -366 0 -219 -33 -325
-126 -411 -38 -35 -106 -62 -120 -48 -13 13 -25 141 -19 201 3 38 22 134 40
215 19 80 32 148 30 150 -7 8 -52 -97 -70 -163 -25 -93 -31 -267 -11 -343 9
-35 16 -65 16 -66 0 -2 -20 0 -43 4 -55 8 -102 37 -160 99 -85 90 -127 204
-127 342 0 191 89 355 291 532 73 64 73 64 106 51 45 -19 87 -17 131 5 97 50
128 156 72 248 -45 75 -120 94 -235 58 -36 -11 -196 194 -271 345 -47 96 -78
219 -71 282 l6 48 -2678 0 -2678 0 -6 -77z m-1158 -3997 c66 -34 176 -138 168
-159 -3 -9 0 -18 8 -21 22 -8 38 -85 32 -159 -8 -126 -101 -265 -249 -378 -95
-71 -283 -165 -527 -264 -175 -71 -292 -127 -354 -169 -21 -14 -40 -26 -43
-26 -2 0 9 24 26 53 58 98 189 365 265 538 155 353 282 532 426 599 64 30 174
23 248 -14z m7961 9 c139 -71 272 -266 425 -620 67 -155 174 -374 234 -478 28
-48 51 -89 51 -92 0 -3 -21 10 -47 29 -27 18 -75 47 -108 64 -61 30 -88 42
-320 137 -303 124 -430 198 -550 320 -98 99 -148 198 -153 300 -4 72 11 155
28 155 6 0 10 7 10 15 0 41 129 148 218 182 49 18 166 12 212 -12z m-8557
-4742 c-7 -2 -21 -2 -30 0 -10 3 -4 5 12 5 17 0 24 -2 18 -5z m502 -173 c165
-22 371 -50 458 -62 87 -11 160 -18 163 -15 3 3 -6 22 -21 41 -15 20 -23 36
-19 36 5 0 74 -11 154 -25 80 -14 148 -25 153 -25 4 0 7 -103 7 -228 l0 -229
-42 -10 c-24 -6 -131 -31 -238 -57 -107 -26 -203 -49 -212 -52 -17 -5 -18 10
-18 230 l0 234 -42 10 c-24 5 -212 47 -418 93 -361 80 -373 84 -335 95 22 7
56 10 75 8 19 -3 170 -23 335 -44z m-270 -106 l315 -117 0 -242 0 -243 -22 -5
c-13 -3 -147 -34 -298 -70 l-275 -66 -291 69 c-160 37 -309 73 -332 80 l-42
11 0 234 0 233 68 26 c195 74 548 205 555 205 4 1 149 -51 322 -115z"/>
<path d="M1600 6560 c0 -5 7 -10 15 -10 8 0 15 5 15 10 0 6 -7 10 -15 10 -8 0
-15 -4 -15 -10z"/>
<path d="M1325 6510 c-3 -5 1 -10 9 -10 8 0 18 5 21 10 3 6 -1 10 -9 10 -8 0
-18 -4 -21 -10z"/>
<path d="M1260 6480 c0 -5 7 -10 15 -10 8 0 15 5 15 10 0 6 -7 10 -15 10 -8 0
-15 -4 -15 -10z"/>
<path d="M1610 6131 c0 -5 5 -13 10 -16 6 -3 10 -2 10 4 0 5 -4 13 -10 16 -5
3 -10 2 -10 -4z"/>
<path d="M1130 5981 c0 -5 5 -13 10 -16 6 -3 10 -2 10 4 0 5 -4 13 -10 16 -5
3 -10 2 -10 -4z"/>
<path d="M780 5829 c0 -5 5 -7 10 -4 6 3 10 8 10 11 0 2 -4 4 -10 4 -5 0 -10
-5 -10 -11z"/>
<path d="M9190 6560 c0 -5 7 -10 15 -10 8 0 15 5 15 10 0 6 -7 10 -15 10 -8 0
-15 -4 -15 -10z"/>
<path d="M9465 6510 c3 -5 13 -10 21 -10 8 0 12 5 9 10 -3 6 -13 10 -21 10 -8
0 -12 -4 -9 -10z"/>
<path d="M9530 6480 c0 -5 7 -10 15 -10 8 0 15 5 15 10 0 6 -7 10 -15 10 -8 0
-15 -4 -15 -10z"/>
<path d="M9190 6124 c0 -8 5 -12 10 -9 6 3 10 10 10 16 0 5 -4 9 -10 9 -5 0
-10 -7 -10 -16z"/>
<path d="M9685 6010 c3 -5 8 -10 11 -10 2 0 4 5 4 10 0 6 -5 10 -11 10 -5 0
-7 -4 -4 -10z"/>
<path d="M9677 5983 c-4 -3 -7 -11 -7 -17 0 -6 5 -5 12 2 6 6 9 14 7 17 -3 3
-9 2 -12 -2z"/>
<path d="M10025 5830 c3 -5 8 -10 11 -10 2 0 4 5 4 10 0 6 -5 10 -11 10 -5 0
-7 -4 -4 -10z"/>
<path d="M8130 10795 c0 -16 67 -168 92 -210 30 -50 115 -145 130 -145 4 0
-24 48 -64 108 -39 59 -86 140 -105 180 -20 39 -39 72 -44 72 -5 0 -9 -2 -9
-5z"/>
<path d="M8246 10778 c36 -115 125 -271 185 -323 31 -28 24 -13 -59 133 -39
67 -78 143 -89 167 -19 46 -51 65 -37 23z"/>
<path d="M8570 10750 c51 -131 90 -349 90 -512 0 -121 33 -199 99 -233 16 -8
31 -26 35 -39 9 -35 60 -91 96 -106 41 -17 125 -8 159 18 l29 21 148 -39 c191
-49 302 -90 395 -144 41 -24 75 -43 77 -41 2 2 -21 46 -52 99 -30 53 -52 96
-48 96 4 0 2 4 -3 8 -6 4 -42 61 -79 127 -38 66 -99 172 -136 235 -37 63 -123
215 -191 337 l-124 223 -257 0 -258 0 20 -50z"/>
<path d="M9280 10795 c0 -3 11 -28 25 -55 l25 -50 40 28 c21 15 39 31 40 36 0
5 7 18 17 28 15 17 13 18 -65 18 -45 0 -82 -2 -82 -5z"/>
<path d="M9516 10773 c-20 -40 -55 -158 -65 -222 l-9 -55 81 -145 c44 -80 103
-186 132 -236 29 -49 96 -167 149 -262 l96 -172 -20 -33 c-13 -22 -20 -51 -20
-87 0 -101 65 -170 168 -176 42 -3 46 -6 79 -60 19 -32 45 -79 58 -106 19 -37
44 -61 107 -107 91 -64 120 -104 139 -189 7 -29 15 -53 19 -53 3 0 15 19 27
43 22 44 131 194 158 217 14 12 15 10 5 -14 -14 -38 -12 -106 4 -135 12 -21
10 -32 -19 -95 -42 -91 -61 -149 -76 -228 l-11 -63 49 -90 c28 -49 89 -162
138 -250 48 -88 89 -162 91 -164 2 -2 4 251 4 562 l0 567 -30 0 c-17 0 -44 -7
-60 -15 -37 -19 -38 -13 -1 34 15 20 42 61 60 92 l31 56 0 237 c0 137 -4 245
-10 256 -24 45 -100 68 -285 86 -171 17 -312 84 -444 213 -202 196 -257 437
-121 528 55 38 65 32 111 -59 63 -126 127 -210 184 -240 19 -11 19 -11 0 18
-10 16 -51 72 -90 124 -40 52 -85 117 -101 144 l-28 49 75 -5 c57 -4 84 -11
114 -30 54 -34 138 -125 129 -140 -4 -6 -3 -8 3 -5 6 4 51 -50 102 -122 85
-119 225 -271 250 -271 6 0 11 18 11 43 0 44 21 77 50 77 7 0 22 -7 32 -17 17
-16 18 -7 18 255 l0 272 -635 0 -634 0 -15 -27z"/>
<path d="M742 10678 c-16 -29 -66 -102 -111 -162 -45 -60 -80 -111 -77 -113
11 -11 79 53 117 110 45 68 114 206 106 213 -2 3 -18 -19 -35 -48z"/>
<path d="M9900 10659 c0 -23 74 -172 122 -242 51 -75 130 -153 189 -186 41
-23 37 -17 -56 85 -130 141 -155 174 -210 275 -24 46 -45 77 -45 68z"/>
<path d="M1525 10640 c3 -5 8 -10 11 -10 2 0 4 5 4 10 0 6 -5 10 -11 10 -5 0
-7 -4 -4 -10z"/>
<path d="M9255 10630 c-3 -5 -1 -10 4 -10 6 0 11 5 11 10 0 6 -2 10 -4 10 -3
0 -8 -4 -11 -10z"/>
<path d="M1550 10600 c0 -5 5 -10 10 -10 6 0 10 5 10 10 0 6 -4 10 -10 10 -5
0 -10 -4 -10 -10z"/>
<path d="M2570 10450 c0 -5 5 -10 11 -10 5 0 7 5 4 10 -3 6 -8 10 -11 10 -2 0
-4 -4 -4 -10z"/>
<path d="M8215 10430 c-3 -5 -1 -10 4 -10 6 0 11 5 11 10 0 6 -2 10 -4 10 -3
0 -8 -4 -11 -10z"/>
<path d="M520 10410 c0 -5 5 -10 10 -10 6 0 10 5 10 10 0 6 -4 10 -10 10 -5 0
-10 -4 -10 -10z"/>
<path d="M10260 10410 c0 -5 5 -10 10 -10 6 0 10 5 10 10 0 6 -4 10 -10 10 -5
0 -10 -4 -10 -10z"/>
<path d="M550 10289 c0 -5 5 -7 10 -4 6 3 10 8 10 11 0 2 -4 4 -10 4 -5 0 -10
-5 -10 -11z"/>
<path d="M10376 10111 c-3 -5 1 -11 9 -15 15 -6 29 7 18 18 -9 9 -21 8 -27 -3z"/>
<path d="M400 10100 c0 -5 4 -10 9 -10 6 0 13 5 16 10 3 6 -1 10 -9 10 -9 0
-16 -4 -16 -10z"/>
<path d="M345 10020 c-3 -5 -1 -10 4 -10 6 0 11 5 11 10 0 6 -2 10 -4 10 -3 0
-8 -4 -11 -10z"/>
<path d="M10445 10020 c3 -5 8 -10 11 -10 2 0 4 5 4 10 0 6 -5 10 -11 10 -5 0
-7 -4 -4 -10z"/>
<path d="M10515 9990 c3 -5 10 -10 16 -10 5 0 9 5 9 10 0 6 -7 10 -16 10 -8 0
-12 -4 -9 -10z"/>
<path d="M1335 9730 c3 -5 8 -10 11 -10 2 0 4 5 4 10 0 6 -5 10 -11 10 -5 0
-7 -4 -4 -10z"/>
<path d="M2250 9730 c0 -5 5 -10 11 -10 5 0 7 5 4 10 -3 6 -8 10 -11 10 -2 0
-4 -4 -4 -10z"/>
<path d="M1070 9720 c0 -5 5 -10 10 -10 6 0 10 5 10 10 0 6 -4 10 -10 10 -5 0
-10 -4 -10 -10z"/>
<path d="M9720 9716 c0 -9 5 -16 10 -16 6 0 10 4 10 9 0 6 -4 13 -10 16 -5 3
-10 -1 -10 -9z"/>
<path d="M1235 9711 c-6 -11 9 -23 19 -14 9 9 7 23 -3 23 -6 0 -12 -4 -16 -9z"/>
<path d="M8540 9709 c0 -5 5 -7 10 -4 6 3 10 8 10 11 0 2 -4 4 -10 4 -5 0 -10
-5 -10 -11z"/>
<path d="M9550 9706 c0 -9 5 -16 10 -16 6 0 10 4 10 9 0 6 -4 13 -10 16 -5 3
-10 -1 -10 -9z"/>
<path d="M2336 9471 c-4 -7 -5 -15 -2 -18 9 -9 19 4 14 18 -4 11 -6 11 -12 0z"/>
<path d="M2500 9446 c0 -9 5 -16 10 -16 6 0 10 4 10 9 0 6 -4 13 -10 16 -5 3
-10 -1 -10 -9z"/>
<path d="M2530 9456 c0 -3 7 -33 15 -68 8 -35 17 -79 20 -98 3 -19 10 -62 16
-95 11 -62 6 -231 -10 -297 -5 -21 -5 -36 -1 -33 19 12 44 164 44 270 0 118
-13 188 -50 273 -19 44 -34 65 -34 48z"/>
<path d="M8460 9446 c0 -9 5 -16 10 -16 6 0 10 4 10 9 0 6 -4 13 -10 16 -5 3
-10 -1 -10 -9z"/>
<path d="M2600 9429 c0 -5 5 -7 10 -4 6 3 10 8 10 11 0 2 -4 4 -10 4 -5 0 -10
-5 -10 -11z"/>
<path d="M8250 9398 c-51 -116 -65 -288 -36 -440 18 -92 39 -148 28 -73 -10
67 -9 309 1 365 5 25 15 76 23 114 8 38 12 71 9 74 -2 3 -14 -15 -25 -40z"/>
<path d="M8296 9431 c-4 -7 -5 -15 -2 -18 9 -9 19 4 14 18 -4 11 -6 11 -12 0z"/>
<path d="M8195 9410 c3 -5 8 -10 11 -10 2 0 4 5 4 10 0 6 -5 10 -11 10 -5 0
-7 -4 -4 -10z"/>
<path d="M2366 9353 c4 -15 20 -80 37 -143 28 -102 31 -131 32 -258 0 -132 1
-140 12 -101 35 119 19 308 -38 444 -32 78 -55 109 -43 58z"/>
<path d="M2490 9249 c0 -5 5 -7 10 -4 6 3 10 8 10 11 0 2 -4 4 -10 4 -5 0 -10
-5 -10 -11z"/>
<path d="M8305 9230 c3 -5 8 -10 11 -10 2 0 4 5 4 10 0 6 -5 10 -11 10 -5 0
-7 -4 -4 -10z"/>
<path d="M10260 8921 c0 -5 5 -13 10 -16 6 -3 10 -2 10 4 0 5 -4 13 -10 16 -5
3 -10 2 -10 -4z"/>
<path d="M2400 8869 c0 -5 5 -7 10 -4 6 3 10 8 10 11 0 2 -4 4 -10 4 -5 0 -10
-5 -10 -11z"/>
<path d="M8395 8850 c4 -6 11 -8 16 -5 14 9 11 15 -7 15 -8 0 -12 -5 -9 -10z"/>
<path d="M575 8830 c-3 -5 -1 -10 4 -10 6 0 11 5 11 10 0 6 -2 10 -4 10 -3 0
-8 -4 -11 -10z"/>
<path d="M590 8778 c0 -9 5 -20 10 -23 13 -8 13 5 0 25 -8 13 -10 13 -10 -2z"/>
<path d="M10217 8783 c-4 -3 -7 -11 -7 -17 0 -6 5 -5 12 2 6 6 9 14 7 17 -3 3
-9 2 -12 -2z"/>
<path d="M540 8749 c0 -5 5 -7 10 -4 6 3 10 8 10 11 0 2 -4 4 -10 4 -5 0 -10
-5 -10 -11z"/>
<path d="M10265 8750 c3 -5 8 -10 11 -10 2 0 4 5 4 10 0 6 -5 10 -11 10 -5 0
-7 -4 -4 -10z"/>
<path d="M10360 8710 c0 -5 5 -10 10 -10 6 0 10 5 10 10 0 6 -4 10 -10 10 -5
0 -10 -4 -10 -10z"/>
<path d="M10447 8693 c-12 -12 -7 -22 8 -17 8 4 15 10 15 15 0 11 -14 12 -23
2z"/>
<path d="M350 8680 c0 -5 7 -10 16 -10 8 0 12 5 9 10 -3 6 -10 10 -16 10 -5 0
-9 -4 -9 -10z"/>
<path d="M1015 8455 c-44 -6 -83 -10 -87 -8 -3 2 -8 0 -10 -4 -1 -5 -23 -18
-48 -30 -60 -29 -30 -30 98 -2 53 12 149 30 212 39 l115 18 -100 0 c-55 0
-136 -6 -180 -13z"/>
<path d="M9540 8461 c8 -5 47 -11 87 -15 39 -3 128 -17 197 -31 69 -14 135
-25 146 -25 32 0 14 18 -30 31 -22 7 -40 15 -40 18 0 3 -10 6 -22 7 -13 0 -67
6 -120 12 -113 14 -240 16 -218 3z"/>
<path d="M930 8340 c0 -5 5 -10 11 -10 5 0 7 5 4 10 -3 6 -8 10 -11 10 -2 0
-4 -4 -4 -10z"/>
<path d="M1125 8336 c-92 -13 -188 -38 -215 -56 -27 -18 48 -11 175 15 66 14
155 28 198 32 43 3 80 10 83 15 7 12 -135 8 -241 -6z"/>
<path d="M9510 8329 c36 -5 130 -20 210 -35 80 -14 161 -24 180 -22 33 3 30 4
-35 25 -94 30 -189 43 -315 42 -104 -1 -105 -2 -40 -10z"/>
<path d="M636 8153 c-12 -12 -6 -33 9 -33 8 0 15 6 15 14 0 17 -14 28 -24 19z"/>
<path d="M10110 8150 c0 -5 5 -10 10 -10 6 0 10 5 10 10 0 6 -4 10 -10 10 -5
0 -10 -4 -10 -10z"/>
<path d="M10166 8144 c-9 -22 -8 -24 9 -24 8 0 15 9 15 20 0 24 -15 27 -24 4z"/>
<path d="M300 8059 c0 -5 5 -7 10 -4 6 3 10 8 10 11 0 2 -4 4 -10 4 -5 0 -10
-5 -10 -11z"/>
<path d="M10510 8059 c0 -5 5 -7 10 -4 6 3 10 8 10 11 0 2 -4 4 -10 4 -5 0
-10 -5 -10 -11z"/>
<path d="M1390 5669 c0 -5 5 -7 10 -4 6 3 10 8 10 11 0 2 -4 4 -10 4 -5 0 -10
-5 -10 -11z"/>
<path d="M9805 5450 c-3 -5 -1 -10 4 -10 6 0 11 5 11 10 0 6 -2 10 -4 10 -3 0
-8 -4 -11 -10z"/>
<path d="M9590 5259 c0 -5 5 -7 10 -4 6 3 10 8 10 11 0 2 -4 4 -10 4 -5 0 -10
-5 -10 -11z"/>
<path d="M567 5173 c-4 -3 -7 -16 -7 -27 0 -19 1 -19 17 -3 12 11 14 20 7 27
-6 6 -13 7 -17 3z"/>
<path d="M10235 5169 c-4 -6 0 -18 9 -27 15 -15 16 -15 16 5 0 25 -15 38 -25
22z"/>
<path d="M920 5160 c0 -5 7 -10 15 -10 8 0 15 5 15 10 0 6 -7 10 -15 10 -8 0
-15 -4 -15 -10z"/>
<path d="M1335 5160 c3 -5 8 -10 11 -10 2 0 4 5 4 10 0 6 -5 10 -11 10 -5 0
-7 -4 -4 -10z"/>
<path d="M9870 5160 c0 -5 7 -10 15 -10 8 0 15 5 15 10 0 6 -7 10 -15 10 -8 0
-15 -4 -15 -10z"/>
<path d="M1030 5066 c0 -21 21 -31 30 -15 5 7 6 17 4 21 -9 14 -34 9 -34 -6z"/>
<path d="M9754 5069 c-8 -14 11 -33 25 -25 6 4 11 14 11 22 0 16 -26 19 -36 3z"/>
<path d="M465 4350 c-4 -6 -3 -16 3 -22 6 -6 12 -6 17 2 4 6 3 16 -3 22 -6 6
-12 6 -17 -2z"/>
<path d="M10335 4350 c-4 -6 -3 -16 3 -22 6 -6 12 -6 17 2 4 6 3 16 -3 22 -6
6 -12 6 -17 -2z"/>
<path d="M9268 2853 c-104 -111 -90 -227 43 -359 l59 -58 122 23 c68 13 126
26 130 30 4 3 -35 67 -87 142 -88 128 -200 249 -229 249 -7 0 -24 -12 -38 -27z"/>
<path d="M9388 2338 c-7 -4 -8 -8 -3 -8 6 0 4 -4 -4 -9 -17 -11 110 -24 189
-19 l55 3 -40 12 c-57 17 -182 31 -197 21z"/>
<path d="M10765 239 c-16 -10 -36 -19 -44 -19 -8 0 -91 -46 -185 -102 -145
-88 -178 -104 -225 -109 -31 -3 67 -7 217 -8 l272 -1 0 130 c0 72 -1 130 -2
129 -2 0 -16 -9 -33 -20z"/>
</g>
</svg>
